<svg width="136" height="40" viewBox="0 0 136 40" fill="none" xmlns="http://www.w3.org/2000/svg">
<path d="M0.941364 17.2416H4.36632C4.88708 17.2416 5.30101 17.6354 5.30101 18.1167V29.1118C5.30101 29.5993 4.8804 29.9931 4.35965 29.9931H0.941364C0.420609 29.9931 0 29.5993 0 29.1118V18.1167C0 17.6291 0.420609 17.2353 0.941364 17.2353V17.2416Z" fill="url(#paint0_linear_3014_280)"/>
<path d="M7.85137 17.2416H11.2763C11.7971 17.2416 12.2177 17.6354 12.2177 18.1229V29.118C12.2177 29.6056 11.7971 29.9994 11.2763 29.9994H7.85137C7.33062 29.9994 6.91001 29.6056 6.91001 29.118V18.1229C6.91001 17.6354 7.33062 17.2416 7.85137 17.2416Z" fill="url(#paint1_linear_3014_280)"/>
<path d="M14.7614 17.2416H18.1863C18.7071 17.2416 19.1277 17.6354 19.1277 18.1229V29.118C19.1277 29.6056 18.7071 29.9994 18.1863 29.9994H14.7614C14.2406 29.9994 13.82 29.6056 13.82 29.118V18.1229C13.82 17.6354 14.2406 17.2416 14.7614 17.2416Z" fill="url(#paint2_linear_3014_280)"/>
<path d="M25.1498 17.2416H21.6781C21.1573 17.2416 20.7434 17.6354 20.7434 18.1229V29.118C20.7434 29.6056 21.164 29.9994 21.6781 29.9994H25.1097C25.6238 29.9994 26.0444 29.6056 26.0444 29.1243L26.0845 18.1292C26.0845 17.6416 25.6638 17.2478 25.1498 17.2478V17.2416Z" fill="url(#paint3_linear_3014_280)"/>
<path d="M32.013 17.2416H28.6348C28.1207 17.2416 27.7001 17.6354 27.7001 18.1167L27.6601 29.1118C27.6601 29.5993 28.0807 29.9931 28.5948 29.9931H32.0197C32.5405 29.9931 32.9544 29.5993 32.9544 29.1118V18.1167C32.9544 17.6291 32.5338 17.2353 32.0197 17.2353L32.013 17.2416Z" fill="url(#paint4_linear_3014_280)"/>
<path d="M13.5196 12.3472C12.7919 12.4097 12.1509 11.9034 12.0842 11.2283C12.0775 11.1533 12.0842 11.0783 12.0842 11.0033L2.49695 4.03373C1.96952 3.64618 1.86937 2.93359 2.28331 2.43978C2.69724 1.94597 3.45834 1.85221 3.98577 2.23976C4.0058 2.25226 4.02583 2.27101 4.04586 2.28976L13.1724 9.90319C13.1724 9.90319 13.2392 9.89694 13.2726 9.89069C14.0003 9.82818 14.6412 10.3345 14.708 11.0096C14.7747 11.6909 14.234 12.291 13.5129 12.3535L13.5196 12.3472Z" fill="url(#paint5_linear_3014_280)"/>
<path d="M31.4789 5.75893C31.4789 5.75893 31.4389 5.79644 31.4188 5.81519L22.3457 13.4411C22.4058 14.0162 22.0386 14.5725 21.4244 14.7475C20.73 14.9476 19.989 14.585 19.7686 13.9349C19.555 13.2849 19.9422 12.591 20.6366 12.3847C20.8369 12.3285 21.0438 12.316 21.2441 12.3472L29.7364 4.17749C30.2038 3.72744 30.9782 3.71494 31.4589 4.15874C31.9396 4.59629 31.953 5.32138 31.4789 5.76519V5.75893Z" fill="url(#paint6_linear_3014_280)"/>
<path d="M55.3979 29.7572H54.5566L53.208 28.007C52.8742 28.2821 52.527 28.5446 52.1598 28.7884C51.7926 29.0322 51.4054 29.2384 50.9982 29.4197C50.5909 29.601 50.177 29.7385 49.743 29.8448C49.3157 29.9448 48.8818 30.001 48.4411 30.001C47.4797 30.001 46.5851 29.8323 45.7372 29.4947C44.896 29.1572 44.1549 28.6884 43.5273 28.0883C42.8931 27.4882 42.399 26.7756 42.0318 25.9568C41.6646 25.1379 41.4844 24.2378 41.4844 23.269C41.4844 22.3001 41.6646 21.4125 42.0318 20.5874C42.399 19.7623 42.8931 19.0497 43.5273 18.4434C44.1616 17.837 44.896 17.3682 45.7372 17.0244C46.5784 16.6807 47.4797 16.5119 48.4411 16.5119C48.7482 16.5119 49.062 16.5369 49.3892 16.5806C49.7163 16.6307 50.0301 16.7057 50.3439 16.8119C50.651 16.9182 50.9447 17.062 51.2185 17.237C51.4922 17.412 51.7192 17.6245 51.9061 17.8808V11.9238H55.4045V29.751L55.3979 29.7572ZM51.8995 23.2627C51.8995 22.8189 51.806 22.3876 51.6257 21.9688C51.4455 21.55 51.1984 21.1812 50.8847 20.8624C50.5709 20.5436 50.2037 20.2811 49.7831 20.0873C49.3625 19.8935 48.9151 19.7935 48.4411 19.7935C47.9671 19.7935 47.5198 19.8748 47.0992 20.0311C46.6786 20.1873 46.318 20.4186 46.0043 20.7186C45.6971 21.0187 45.4501 21.3812 45.2699 21.8063C45.0896 22.2376 45.0028 22.7189 45.0028 23.2565C45.0028 23.7253 45.0896 24.1691 45.2699 24.5879C45.4501 25.0067 45.6905 25.3755 46.0043 25.6943C46.3114 26.013 46.6786 26.2631 47.0992 26.4443C47.5198 26.6256 47.9671 26.7194 48.4411 26.7194C48.9151 26.7194 49.3625 26.6194 49.7831 26.4256C50.2037 26.2318 50.5709 25.9755 50.8847 25.6505C51.1984 25.3317 51.4455 24.9629 51.6257 24.5441C51.806 24.1253 51.8995 23.694 51.8995 23.2502V23.2627Z" fill="black"/>
<path d="M62.042 29.7569H58.5703V17.0054H59.4115L60.5532 18.5181C61.114 18.043 61.7482 17.6742 62.4626 17.4179C63.177 17.1616 63.9114 17.0304 64.6792 17.0304H67.7436V20.2683H64.6792C64.312 20.2683 63.9715 20.3308 63.651 20.4558C63.3305 20.5808 63.0501 20.7558 62.8098 20.9809C62.5694 21.2059 62.3892 21.4622 62.249 21.7684C62.1154 22.0685 62.042 22.3935 62.042 22.7311V29.7569Z" fill="black"/>
<path d="M79.7809 28.2624C79.5005 28.4999 79.2 28.725 78.8862 28.9375C78.5658 29.15 78.232 29.3313 77.8848 29.4875C77.5376 29.6438 77.1771 29.7626 76.8099 29.8563C76.4427 29.9501 76.0688 29.9939 75.6816 29.9939C74.8404 29.9939 74.0526 29.8563 73.3182 29.5751C72.5771 29.3 71.9362 28.9 71.3754 28.3874C70.8212 27.8749 70.3806 27.2498 70.0668 26.5184C69.7463 25.7871 69.5928 24.962 69.5928 24.0494V16.9985H73.0511V24.0494C73.0511 24.4807 73.1246 24.862 73.2581 25.1995C73.3983 25.5371 73.5852 25.8184 73.8256 26.0496C74.0659 26.2809 74.3397 26.4559 74.6601 26.5747C74.9806 26.6935 75.3211 26.756 75.6816 26.756C76.0421 26.756 76.3759 26.681 76.6897 26.5247C77.0102 26.3684 77.2839 26.1684 77.5243 25.9121C77.7579 25.6558 77.9515 25.3683 78.0851 25.0495C78.2186 24.7307 78.292 24.3994 78.292 24.0556V17.0048H81.7637V29.7563H80.9225L79.7809 28.2687V28.2624Z" fill="black"/>
<path d="M102.254 29.7563H98.7956V21.6615C98.7956 21.4365 98.7489 21.2302 98.6621 21.0302C98.5753 20.8302 98.4485 20.6552 98.2882 20.5051C98.128 20.3551 97.9411 20.2364 97.7274 20.1551C97.5138 20.0738 97.2934 20.0301 97.0531 20.0301C96.8127 20.0301 96.5924 20.0738 96.3855 20.1551C96.1785 20.2364 95.9982 20.3551 95.838 20.5051C95.6845 20.6552 95.5576 20.8302 95.4708 21.0302C95.384 21.2302 95.3373 21.4365 95.3373 21.6615V29.7563H91.8656V21.6615C91.8656 21.4365 91.8188 21.2302 91.7321 21.0302C91.6453 20.8302 91.5184 20.6552 91.3582 20.5051C91.1979 20.3551 91.011 20.2364 90.7974 20.1551C90.5837 20.0738 90.3634 20.0301 90.1231 20.0301C89.8827 20.0301 89.6624 20.0738 89.4554 20.1551C89.2485 20.2364 89.0682 20.3551 88.908 20.5051C88.7544 20.6552 88.6276 20.8302 88.5408 21.0302C88.454 21.2302 88.4072 21.4365 88.4072 21.6615V29.7563H84.9355V17.0047H85.7768L86.7181 17.9798C87.1988 17.5985 87.7329 17.3048 88.3138 17.0922C88.8946 16.8797 89.5022 16.7734 90.1297 16.7734C90.7573 16.7734 91.3849 16.886 91.9924 17.1047C92.6 17.3298 93.1274 17.7111 93.5881 18.2611C93.8017 17.9923 94.0421 17.7611 94.3158 17.5673C94.5895 17.3798 94.8766 17.2235 95.177 17.1047C95.4775 16.986 95.7913 16.8985 96.1117 16.8484C96.4322 16.7984 96.7527 16.7734 97.0665 16.7734C97.7875 16.7734 98.4618 16.8985 99.0961 17.1547C99.7303 17.411 100.278 17.7548 100.752 18.1986C101.226 18.6424 101.593 19.155 101.867 19.755C102.14 20.3489 102.274 20.9864 102.274 21.6615V29.7563H102.254Z" fill="black"/>
<path d="M108.8 29.7564H105.302V11.9292H108.8V23.1681L113.974 17.0236H117.967L113.454 22.3367L117.967 29.7564H113.974L111.217 25.1246L108.8 28.1249V29.7564Z" fill="black"/>
<path d="M123.962 13.5358C123.962 13.8358 123.902 14.1171 123.775 14.3797C123.655 14.6422 123.488 14.8672 123.274 15.0672C123.06 15.261 122.813 15.4173 122.533 15.5298C122.246 15.6423 121.945 15.7048 121.625 15.7048C121.304 15.7048 120.997 15.6486 120.717 15.5298C120.43 15.4173 120.19 15.261 119.976 15.0672C119.769 14.8735 119.602 14.6422 119.482 14.3797C119.362 14.1171 119.295 13.8358 119.295 13.5358C119.295 13.2358 119.355 12.9607 119.482 12.6982C119.602 12.4294 119.769 12.2044 119.976 12.0106C120.183 11.8169 120.43 11.6606 120.717 11.5481C121.004 11.4356 121.304 11.373 121.625 11.373C121.945 11.373 122.253 11.4293 122.533 11.5481C122.813 11.6606 123.067 11.8169 123.274 12.0106C123.488 12.2044 123.655 12.4357 123.775 12.6982C123.895 12.967 123.962 13.242 123.962 13.5358ZM123.367 29.7565H119.869V17.005H123.367V29.7565Z" fill="black"/>
<path d="M133.363 29.7565C132.522 29.7565 131.734 29.6064 130.999 29.3127C130.265 29.0126 129.617 28.6063 129.057 28.0875C128.503 27.5687 128.062 26.9624 127.748 26.2685C127.428 25.581 127.274 24.8371 127.274 24.0558V20.2678H125.585V17.0299H127.274V11.9355H130.732V17.0299H136V20.2678H130.732V24.0558C130.732 24.3996 130.799 24.7183 130.939 25.0121C131.073 25.3122 131.26 25.5685 131.5 25.7935C131.734 26.0185 132.014 26.1935 132.341 26.3248C132.662 26.4561 133.009 26.5186 133.37 26.5186H136V29.7565H133.37H133.363Z" fill="black"/>
<defs>
<linearGradient id="paint0_linear_3014_280" x1="-3.55842e-07" y1="1.99583" x2="31.3234" y2="31.4971" gradientUnits="userSpaceOnUse">
<stop stop-color="#FC0643"/>
<stop offset="1" stop-color="#FE8B57"/>
</linearGradient>
<linearGradient id="paint1_linear_3014_280" x1="-3.55842e-07" y1="1.99583" x2="31.3234" y2="31.4971" gradientUnits="userSpaceOnUse">
<stop stop-color="#FC0643"/>
<stop offset="1" stop-color="#FE8B57"/>
</linearGradient>
<linearGradient id="paint2_linear_3014_280" x1="-3.55842e-07" y1="1.99583" x2="31.3234" y2="31.4971" gradientUnits="userSpaceOnUse">
<stop stop-color="#FC0643"/>
<stop offset="1" stop-color="#FE8B57"/>
</linearGradient>
<linearGradient id="paint3_linear_3014_280" x1="-3.55842e-07" y1="1.99583" x2="31.3234" y2="31.4971" gradientUnits="userSpaceOnUse">
<stop stop-color="#FC0643"/>
<stop offset="1" stop-color="#FE8B57"/>
</linearGradient>
<linearGradient id="paint4_linear_3014_280" x1="-3.55842e-07" y1="1.99583" x2="31.3234" y2="31.4971" gradientUnits="userSpaceOnUse">
<stop stop-color="#FC0643"/>
<stop offset="1" stop-color="#FE8B57"/>
</linearGradient>
<linearGradient id="paint5_linear_3014_280" x1="-3.55842e-07" y1="1.99583" x2="31.3234" y2="31.4971" gradientUnits="userSpaceOnUse">
<stop stop-color="#FC0643"/>
<stop offset="1" stop-color="#FE8B57"/>
</linearGradient>
<linearGradient id="paint6_linear_3014_280" x1="-3.55842e-07" y1="1.99583" x2="31.3234" y2="31.4971" gradientUnits="userSpaceOnUse">
<stop stop-color="#FC0643"/>
<stop offset="1" stop-color="#FE8B57"/>
</linearGradient>
</defs>
</svg>
